<svg width="720" height="720" viewBox="0 0 720 720" fill="none" xmlns="http://www.w3.org/2000/svg">
<path fill-rule="evenodd" clip-rule="evenodd" d="M360 720C558.823 720 720 558.823 720 360C720 161.177 558.823 0 360 0C161.177 0 0 161.177 0 360C0 558.823 161.177 720 360 720ZM360 630C509.117 630 630 509.117 630 360C630 210.883 509.117 90 360 90C210.883 90 90 210.883 90 360C90 509.117 210.883 630 360 630Z" fill="#FF4040"/>
<path d="M480 360C480 426.274 426.274 480 360 480C293.726 480 240 426.274 240 360C240 293.726 293.726 240 360 240C426.274 240 480 293.726 480 360Z" fill="#FF4040"/>
</svg>
